<mxfile host="Electron" agent="Mozilla/5.0 (Windows NT 10.0; Win64; x64) AppleWebKit/537.36 (KHTML, like Gecko) draw.io/25.0.2 Chrome/128.0.6613.186 Electron/32.2.5 Safari/537.36" version="25.0.2">
  <diagram name="Página-1" id="hDO83gWSCI8Xfug_nnzE">
    <mxGraphModel dx="1434" dy="884" grid="1" gridSize="10" guides="1" tooltips="1" connect="1" arrows="1" fold="1" page="1" pageScale="1" pageWidth="1654" pageHeight="1169" math="0" shadow="0">
      <root>
        <mxCell id="0" />
        <mxCell id="1" parent="0" />
        <mxCell id="hDYPPicwK_5DRnvfB0r1-127" value="" style="endArrow=none;html=1;rounded=0;strokeWidth=2;dashed=1;dashPattern=1 1;edgeStyle=orthogonalEdgeStyle;" edge="1" parent="1">
          <mxGeometry width="50" height="50" relative="1" as="geometry">
            <mxPoint x="1110" y="450" as="sourcePoint" />
            <mxPoint x="1000" y="700" as="targetPoint" />
            <Array as="points">
              <mxPoint x="1110" y="510" />
              <mxPoint x="970" y="510" />
              <mxPoint x="970" y="700" />
            </Array>
          </mxGeometry>
        </mxCell>
        <mxCell id="hDYPPicwK_5DRnvfB0r1-1" value="INA226&lt;div&gt;Panel solar&lt;/div&gt;" style="whiteSpace=wrap;html=1;aspect=fixed;" vertex="1" parent="1">
          <mxGeometry x="420" y="70" width="80" height="80" as="geometry" />
        </mxCell>
        <mxCell id="hDYPPicwK_5DRnvfB0r1-2" value="Relé 1" style="whiteSpace=wrap;html=1;aspect=fixed;" vertex="1" parent="1">
          <mxGeometry x="400" y="280" width="120" height="120" as="geometry" />
        </mxCell>
        <mxCell id="hDYPPicwK_5DRnvfB0r1-4" value="Cargador Backup" style="whiteSpace=wrap;html=1;aspect=fixed;" vertex="1" parent="1">
          <mxGeometry x="400" y="480" width="120" height="120" as="geometry" />
        </mxCell>
        <mxCell id="hDYPPicwK_5DRnvfB0r1-5" value="INA226&lt;div&gt;Backup&lt;/div&gt;" style="whiteSpace=wrap;html=1;aspect=fixed;" vertex="1" parent="1">
          <mxGeometry x="320" y="680" width="80" height="80" as="geometry" />
        </mxCell>
        <mxCell id="hDYPPicwK_5DRnvfB0r1-7" value="Regulador&lt;div&gt;conmutado&lt;/div&gt;&lt;div&gt;elevador&lt;/div&gt;" style="rounded=0;whiteSpace=wrap;html=1;" vertex="1" parent="1">
          <mxGeometry x="660" y="520" width="80" height="160" as="geometry" />
        </mxCell>
        <mxCell id="hDYPPicwK_5DRnvfB0r1-9" value="Relé 2" style="whiteSpace=wrap;html=1;aspect=fixed;" vertex="1" parent="1">
          <mxGeometry x="640" y="280" width="120" height="120" as="geometry" />
        </mxCell>
        <mxCell id="hDYPPicwK_5DRnvfB0r1-10" value="Regulador&lt;div&gt;conmutado&lt;/div&gt;&lt;div&gt;reductor&lt;/div&gt;" style="rounded=0;whiteSpace=wrap;html=1;" vertex="1" parent="1">
          <mxGeometry x="820" y="520" width="80" height="160" as="geometry" />
        </mxCell>
        <mxCell id="hDYPPicwK_5DRnvfB0r1-11" value="LDO" style="whiteSpace=wrap;html=1;aspect=fixed;" vertex="1" parent="1">
          <mxGeometry x="820" y="720" width="80" height="80" as="geometry" />
        </mxCell>
        <mxCell id="hDYPPicwK_5DRnvfB0r1-13" value="ESP8266" style="rounded=0;whiteSpace=wrap;html=1;" vertex="1" parent="1">
          <mxGeometry x="1010" y="560" width="120" height="160" as="geometry" />
        </mxCell>
        <mxCell id="hDYPPicwK_5DRnvfB0r1-14" value="Cargador BAT1" style="whiteSpace=wrap;html=1;aspect=fixed;" vertex="1" parent="1">
          <mxGeometry x="940" y="200" width="120" height="120" as="geometry" />
        </mxCell>
        <mxCell id="hDYPPicwK_5DRnvfB0r1-15" value="Cargador BAT2" style="whiteSpace=wrap;html=1;aspect=fixed;" vertex="1" parent="1">
          <mxGeometry x="940" y="370" width="120" height="120" as="geometry" />
        </mxCell>
        <mxCell id="hDYPPicwK_5DRnvfB0r1-16" value="INA226&lt;div&gt;BAT1&lt;/div&gt;" style="whiteSpace=wrap;html=1;aspect=fixed;" vertex="1" parent="1">
          <mxGeometry x="1100" y="200" width="80" height="80" as="geometry" />
        </mxCell>
        <mxCell id="hDYPPicwK_5DRnvfB0r1-17" value="INA226&lt;div&gt;BAT2&lt;/div&gt;" style="whiteSpace=wrap;html=1;aspect=fixed;" vertex="1" parent="1">
          <mxGeometry x="1100" y="370" width="80" height="80" as="geometry" />
        </mxCell>
        <mxCell id="hDYPPicwK_5DRnvfB0r1-18" value="" style="verticalLabelPosition=bottom;shadow=0;dashed=0;align=center;html=1;verticalAlign=top;shape=mxgraph.electrical.opto_electronics.solar_cell;pointerEvents=1;rotation=-90;" vertex="1" parent="1">
          <mxGeometry x="315" y="133.25" width="83.75" height="58.75" as="geometry" />
        </mxCell>
        <mxCell id="hDYPPicwK_5DRnvfB0r1-19" value="Panel solar" style="text;html=1;align=center;verticalAlign=middle;resizable=0;points=[];autosize=1;strokeColor=none;fillColor=none;" vertex="1" parent="1">
          <mxGeometry x="280" y="170.26" width="80" height="30" as="geometry" />
        </mxCell>
        <mxCell id="hDYPPicwK_5DRnvfB0r1-21" value="Batería Backup" style="rounded=0;whiteSpace=wrap;html=1;" vertex="1" parent="1">
          <mxGeometry x="80" y="680" width="200" height="120" as="geometry" />
        </mxCell>
        <mxCell id="hDYPPicwK_5DRnvfB0r1-25" value="" style="endArrow=none;html=1;rounded=0;strokeWidth=5;entryX=0.75;entryY=1;entryDx=0;entryDy=0;edgeStyle=orthogonalEdgeStyle;" edge="1" parent="1">
          <mxGeometry width="50" height="50" relative="1" as="geometry">
            <mxPoint x="280" y="780" as="sourcePoint" />
            <mxPoint x="719.9699999999999" y="680" as="targetPoint" />
            <Array as="points">
              <mxPoint x="720" y="780" />
            </Array>
          </mxGeometry>
        </mxCell>
        <mxCell id="hDYPPicwK_5DRnvfB0r1-27" value="" style="endArrow=none;html=1;rounded=0;fillColor=#a20025;strokeColor=#6F0000;strokeWidth=5;exitX=1;exitY=0.25;exitDx=0;exitDy=0;edgeStyle=orthogonalEdgeStyle;entryX=0.25;entryY=1;entryDx=0;entryDy=0;dashed=1;dashPattern=1 1;" edge="1" parent="1" source="hDYPPicwK_5DRnvfB0r1-5" target="hDYPPicwK_5DRnvfB0r1-7">
          <mxGeometry width="50" height="50" relative="1" as="geometry">
            <mxPoint x="500" y="699.71" as="sourcePoint" />
            <mxPoint x="700" y="700" as="targetPoint" />
          </mxGeometry>
        </mxCell>
        <mxCell id="hDYPPicwK_5DRnvfB0r1-29" value="" style="endArrow=none;html=1;rounded=0;fillColor=#a20025;strokeColor=#6F0000;strokeWidth=5;edgeStyle=orthogonalEdgeStyle;dashed=1;dashPattern=1 1;" edge="1" parent="1">
          <mxGeometry width="50" height="50" relative="1" as="geometry">
            <mxPoint x="280" y="700" as="sourcePoint" />
            <mxPoint x="320" y="700" as="targetPoint" />
          </mxGeometry>
        </mxCell>
        <mxCell id="hDYPPicwK_5DRnvfB0r1-33" value="" style="endArrow=none;html=1;rounded=0;strokeWidth=5;entryX=0.665;entryY=0.982;entryDx=0;entryDy=0;entryPerimeter=0;" edge="1" parent="1" target="hDYPPicwK_5DRnvfB0r1-4">
          <mxGeometry width="50" height="50" relative="1" as="geometry">
            <mxPoint x="480" y="780" as="sourcePoint" />
            <mxPoint x="482" y="630" as="targetPoint" />
          </mxGeometry>
        </mxCell>
        <mxCell id="hDYPPicwK_5DRnvfB0r1-30" value="" style="endArrow=none;html=1;rounded=0;fillColor=#a20025;strokeColor=#6F0000;strokeWidth=5;edgeStyle=orthogonalEdgeStyle;exitX=0.356;exitY=1.001;exitDx=0;exitDy=0;exitPerimeter=0;" edge="1" parent="1" source="hDYPPicwK_5DRnvfB0r1-4">
          <mxGeometry width="50" height="50" relative="1" as="geometry">
            <mxPoint x="440" y="640" as="sourcePoint" />
            <mxPoint x="440" y="700" as="targetPoint" />
            <Array as="points">
              <mxPoint x="440" y="600" />
              <mxPoint x="440" y="700" />
            </Array>
          </mxGeometry>
        </mxCell>
        <mxCell id="hDYPPicwK_5DRnvfB0r1-36" value="" style="endArrow=none;html=1;rounded=0;fillColor=#a20025;strokeColor=#6F0000;strokeWidth=5;edgeStyle=orthogonalEdgeStyle;" edge="1" parent="1">
          <mxGeometry width="50" height="50" relative="1" as="geometry">
            <mxPoint x="360" y="120" as="sourcePoint" />
            <mxPoint x="420" y="90" as="targetPoint" />
            <Array as="points">
              <mxPoint x="360" y="90" />
              <mxPoint x="420" y="90" />
            </Array>
          </mxGeometry>
        </mxCell>
        <mxCell id="hDYPPicwK_5DRnvfB0r1-37" value="" style="endArrow=none;html=1;rounded=0;strokeWidth=5;edgeStyle=orthogonalEdgeStyle;" edge="1" parent="1">
          <mxGeometry width="50" height="50" relative="1" as="geometry">
            <mxPoint x="360" y="200" as="sourcePoint" />
            <mxPoint x="580" y="220" as="targetPoint" />
            <Array as="points">
              <mxPoint x="360" y="200" />
              <mxPoint x="360" y="220" />
            </Array>
          </mxGeometry>
        </mxCell>
        <mxCell id="hDYPPicwK_5DRnvfB0r1-38" value="" style="endArrow=none;html=1;rounded=0;strokeWidth=5;" edge="1" parent="1">
          <mxGeometry width="50" height="50" relative="1" as="geometry">
            <mxPoint x="500" y="220" as="sourcePoint" />
            <mxPoint x="500" y="280.57" as="targetPoint" />
          </mxGeometry>
        </mxCell>
        <mxCell id="hDYPPicwK_5DRnvfB0r1-39" value="GND" style="text;html=1;align=center;verticalAlign=middle;resizable=0;points=[];autosize=1;strokeColor=none;fillColor=none;fontSize=8;" vertex="1" parent="1">
          <mxGeometry x="480" y="280" width="40" height="20" as="geometry" />
        </mxCell>
        <mxCell id="hDYPPicwK_5DRnvfB0r1-40" value="GND" style="text;html=1;align=center;verticalAlign=middle;resizable=0;points=[];autosize=1;strokeColor=none;fillColor=none;fontSize=8;" vertex="1" parent="1">
          <mxGeometry x="460" y="580" width="40" height="20" as="geometry" />
        </mxCell>
        <mxCell id="hDYPPicwK_5DRnvfB0r1-42" value="IN+" style="text;html=1;align=center;verticalAlign=middle;resizable=0;points=[];autosize=1;strokeColor=none;fillColor=none;fontSize=8;" vertex="1" parent="1">
          <mxGeometry x="660" y="660" width="40" height="20" as="geometry" />
        </mxCell>
        <mxCell id="hDYPPicwK_5DRnvfB0r1-43" value="IN-" style="text;html=1;align=center;verticalAlign=middle;resizable=0;points=[];autosize=1;strokeColor=none;fillColor=none;fontSize=8;" vertex="1" parent="1">
          <mxGeometry x="705" y="660" width="30" height="20" as="geometry" />
        </mxCell>
        <mxCell id="hDYPPicwK_5DRnvfB0r1-45" value="OUT+" style="text;html=1;align=center;verticalAlign=middle;resizable=0;points=[];autosize=1;strokeColor=none;fillColor=none;fontSize=8;" vertex="1" parent="1">
          <mxGeometry x="655" y="520" width="50" height="20" as="geometry" />
        </mxCell>
        <mxCell id="hDYPPicwK_5DRnvfB0r1-46" value="OUT-" style="text;html=1;align=center;verticalAlign=middle;resizable=0;points=[];autosize=1;strokeColor=none;fillColor=none;fontSize=8;" vertex="1" parent="1">
          <mxGeometry x="700" y="520" width="40" height="20" as="geometry" />
        </mxCell>
        <mxCell id="hDYPPicwK_5DRnvfB0r1-47" value="VCC" style="text;html=1;align=center;verticalAlign=middle;resizable=0;points=[];autosize=1;strokeColor=none;fillColor=none;fontSize=8;" vertex="1" parent="1">
          <mxGeometry x="400" y="280" width="40" height="20" as="geometry" />
        </mxCell>
        <mxCell id="hDYPPicwK_5DRnvfB0r1-49" value="SW" style="text;html=1;align=center;verticalAlign=middle;resizable=0;points=[];autosize=1;strokeColor=none;fillColor=none;fontSize=8;" vertex="1" parent="1">
          <mxGeometry x="440" y="280" width="40" height="20" as="geometry" />
        </mxCell>
        <mxCell id="hDYPPicwK_5DRnvfB0r1-50" value="GND" style="text;html=1;align=center;verticalAlign=middle;resizable=0;points=[];autosize=1;strokeColor=none;fillColor=none;fontSize=8;" vertex="1" parent="1">
          <mxGeometry x="720" y="280" width="40" height="20" as="geometry" />
        </mxCell>
        <mxCell id="hDYPPicwK_5DRnvfB0r1-51" value="VCC" style="text;html=1;align=center;verticalAlign=middle;resizable=0;points=[];autosize=1;strokeColor=none;fillColor=none;fontSize=8;" vertex="1" parent="1">
          <mxGeometry x="640" y="280" width="40" height="20" as="geometry" />
        </mxCell>
        <mxCell id="hDYPPicwK_5DRnvfB0r1-52" value="SW" style="text;html=1;align=center;verticalAlign=middle;resizable=0;points=[];autosize=1;strokeColor=none;fillColor=none;fontSize=8;" vertex="1" parent="1">
          <mxGeometry x="680" y="280" width="40" height="20" as="geometry" />
        </mxCell>
        <mxCell id="hDYPPicwK_5DRnvfB0r1-53" value="OUT" style="text;html=1;align=center;verticalAlign=middle;resizable=0;points=[];autosize=1;strokeColor=none;fillColor=none;fontSize=8;" vertex="1" parent="1">
          <mxGeometry x="420" y="580" width="40" height="20" as="geometry" />
        </mxCell>
        <mxCell id="hDYPPicwK_5DRnvfB0r1-54" value="GND" style="text;html=1;align=center;verticalAlign=middle;resizable=0;points=[];autosize=1;strokeColor=none;fillColor=none;fontSize=8;" vertex="1" parent="1">
          <mxGeometry x="460" y="480" width="40" height="20" as="geometry" />
        </mxCell>
        <mxCell id="hDYPPicwK_5DRnvfB0r1-55" value="IN" style="text;html=1;align=center;verticalAlign=middle;resizable=0;points=[];autosize=1;strokeColor=none;fillColor=none;fontSize=8;" vertex="1" parent="1">
          <mxGeometry x="425" y="480" width="30" height="20" as="geometry" />
        </mxCell>
        <mxCell id="hDYPPicwK_5DRnvfB0r1-56" value="NC" style="text;html=1;align=center;verticalAlign=middle;resizable=0;points=[];autosize=1;strokeColor=none;fillColor=none;fontSize=8;" vertex="1" parent="1">
          <mxGeometry x="480" y="380" width="40" height="20" as="geometry" />
        </mxCell>
        <mxCell id="hDYPPicwK_5DRnvfB0r1-57" value="NO" style="text;html=1;align=center;verticalAlign=middle;resizable=0;points=[];autosize=1;strokeColor=none;fillColor=none;fontSize=8;" vertex="1" parent="1">
          <mxGeometry x="400" y="380" width="40" height="20" as="geometry" />
        </mxCell>
        <mxCell id="hDYPPicwK_5DRnvfB0r1-58" value="C" style="text;html=1;align=center;verticalAlign=middle;resizable=0;points=[];autosize=1;strokeColor=none;fillColor=none;fontSize=8;" vertex="1" parent="1">
          <mxGeometry x="445" y="380" width="30" height="20" as="geometry" />
        </mxCell>
        <mxCell id="hDYPPicwK_5DRnvfB0r1-59" value="" style="endArrow=none;html=1;rounded=0;fillColor=#a20025;strokeColor=#6F0000;strokeWidth=5;edgeStyle=orthogonalEdgeStyle;" edge="1" parent="1">
          <mxGeometry width="50" height="50" relative="1" as="geometry">
            <mxPoint x="440" y="440" as="sourcePoint" />
            <mxPoint x="460" y="400" as="targetPoint" />
            <Array as="points">
              <mxPoint x="440" y="420" />
              <mxPoint x="460" y="420" />
            </Array>
          </mxGeometry>
        </mxCell>
        <mxCell id="hDYPPicwK_5DRnvfB0r1-63" value="" style="endArrow=none;html=1;rounded=0;fillColor=#a20025;strokeColor=#6F0000;strokeWidth=5;" edge="1" parent="1">
          <mxGeometry width="50" height="50" relative="1" as="geometry">
            <mxPoint x="439.43" y="480" as="sourcePoint" />
            <mxPoint x="439.43" y="460" as="targetPoint" />
          </mxGeometry>
        </mxCell>
        <mxCell id="hDYPPicwK_5DRnvfB0r1-64" value="" style="rounded=0;whiteSpace=wrap;html=1;fillColor=#000000;" vertex="1" parent="1">
          <mxGeometry x="435" y="440" width="10" height="20" as="geometry" />
        </mxCell>
        <mxCell id="hDYPPicwK_5DRnvfB0r1-65" value="" style="endArrow=none;html=1;rounded=0;fillColor=#a20025;strokeColor=#6F0000;strokeWidth=5;edgeStyle=orthogonalEdgeStyle;entryX=1;entryY=0.25;entryDx=0;entryDy=0;" edge="1" parent="1" target="hDYPPicwK_5DRnvfB0r1-1">
          <mxGeometry width="50" height="50" relative="1" as="geometry">
            <mxPoint x="500" y="400" as="sourcePoint" />
            <mxPoint x="560" y="140" as="targetPoint" />
            <Array as="points">
              <mxPoint x="500" y="420" />
              <mxPoint x="550" y="420" />
              <mxPoint x="550" y="90" />
            </Array>
          </mxGeometry>
        </mxCell>
        <mxCell id="hDYPPicwK_5DRnvfB0r1-66" value="" style="endArrow=none;html=1;rounded=0;strokeWidth=5;edgeStyle=orthogonalEdgeStyle;" edge="1" parent="1">
          <mxGeometry width="50" height="50" relative="1" as="geometry">
            <mxPoint x="480" y="480" as="sourcePoint" />
            <mxPoint x="580" y="220" as="targetPoint" />
            <Array as="points">
              <mxPoint x="480" y="450" />
              <mxPoint x="580" y="450" />
            </Array>
          </mxGeometry>
        </mxCell>
        <mxCell id="hDYPPicwK_5DRnvfB0r1-67" value="" style="endArrow=none;html=1;rounded=0;strokeWidth=5;edgeStyle=orthogonalEdgeStyle;entryX=0.5;entryY=0;entryDx=0;entryDy=0;entryPerimeter=0;" edge="1" parent="1" target="hDYPPicwK_5DRnvfB0r1-50">
          <mxGeometry width="50" height="50" relative="1" as="geometry">
            <mxPoint x="570" y="220" as="sourcePoint" />
            <mxPoint x="760" y="219" as="targetPoint" />
          </mxGeometry>
        </mxCell>
        <mxCell id="hDYPPicwK_5DRnvfB0r1-68" value="NC" style="text;html=1;align=center;verticalAlign=middle;resizable=0;points=[];autosize=1;strokeColor=none;fillColor=none;fontSize=8;" vertex="1" parent="1">
          <mxGeometry x="720" y="380" width="40" height="20" as="geometry" />
        </mxCell>
        <mxCell id="hDYPPicwK_5DRnvfB0r1-69" value="NO" style="text;html=1;align=center;verticalAlign=middle;resizable=0;points=[];autosize=1;strokeColor=none;fillColor=none;fontSize=8;" vertex="1" parent="1">
          <mxGeometry x="640" y="380" width="40" height="20" as="geometry" />
        </mxCell>
        <mxCell id="hDYPPicwK_5DRnvfB0r1-70" value="C" style="text;html=1;align=center;verticalAlign=middle;resizable=0;points=[];autosize=1;strokeColor=none;fillColor=none;fontSize=8;" vertex="1" parent="1">
          <mxGeometry x="685" y="380" width="30" height="20" as="geometry" />
        </mxCell>
        <mxCell id="hDYPPicwK_5DRnvfB0r1-71" value="" style="endArrow=none;html=1;rounded=0;fillColor=#a20025;strokeColor=#6F0000;strokeWidth=5;edgeStyle=orthogonalEdgeStyle;entryX=0.482;entryY=1.093;entryDx=0;entryDy=0;entryPerimeter=0;" edge="1" parent="1" target="hDYPPicwK_5DRnvfB0r1-68">
          <mxGeometry width="50" height="50" relative="1" as="geometry">
            <mxPoint x="550" y="420" as="sourcePoint" />
            <mxPoint x="740" y="420" as="targetPoint" />
          </mxGeometry>
        </mxCell>
        <mxCell id="hDYPPicwK_5DRnvfB0r1-72" value="" style="endArrow=none;html=1;rounded=0;fillColor=#a20025;strokeColor=#6F0000;strokeWidth=5;edgeStyle=orthogonalEdgeStyle;exitX=0.543;exitY=-0.107;exitDx=0;exitDy=0;exitPerimeter=0;dashed=1;dashPattern=1 1;" edge="1" parent="1" source="hDYPPicwK_5DRnvfB0r1-45">
          <mxGeometry width="50" height="50" relative="1" as="geometry">
            <mxPoint x="680" y="450" as="sourcePoint" />
            <mxPoint x="659.43" y="400" as="targetPoint" />
            <Array as="points">
              <mxPoint x="680" y="518" />
              <mxPoint x="680" y="480" />
              <mxPoint x="659" y="480" />
            </Array>
          </mxGeometry>
        </mxCell>
        <mxCell id="hDYPPicwK_5DRnvfB0r1-73" value="" style="endArrow=none;html=1;rounded=0;strokeWidth=5;fillColor=#a20025;strokeColor=#6F0000;dashed=1;dashPattern=1 1;edgeStyle=orthogonalEdgeStyle;" edge="1" parent="1">
          <mxGeometry width="50" height="50" relative="1" as="geometry">
            <mxPoint x="610" y="700" as="sourcePoint" />
            <mxPoint x="610" y="250" as="targetPoint" />
          </mxGeometry>
        </mxCell>
        <mxCell id="hDYPPicwK_5DRnvfB0r1-74" value="" style="endArrow=none;html=1;rounded=0;dashed=1;dashPattern=1 1;fillColor=#a20025;strokeColor=#6F0000;strokeWidth=5;edgeStyle=orthogonalEdgeStyle;" edge="1" parent="1">
          <mxGeometry width="50" height="50" relative="1" as="geometry">
            <mxPoint x="660" y="280" as="sourcePoint" />
            <mxPoint x="420" y="279.97" as="targetPoint" />
            <Array as="points">
              <mxPoint x="660" y="249.97" />
              <mxPoint x="420" y="249.97" />
            </Array>
          </mxGeometry>
        </mxCell>
        <mxCell id="hDYPPicwK_5DRnvfB0r1-75" value="Batería 1" style="rounded=0;whiteSpace=wrap;html=1;" vertex="1" parent="1">
          <mxGeometry x="1220" y="200.26000000000002" width="200" height="120" as="geometry" />
        </mxCell>
        <mxCell id="hDYPPicwK_5DRnvfB0r1-76" value="Batería 2" style="rounded=0;whiteSpace=wrap;html=1;" vertex="1" parent="1">
          <mxGeometry x="1220" y="370" width="200" height="120" as="geometry" />
        </mxCell>
        <mxCell id="hDYPPicwK_5DRnvfB0r1-77" value="" style="endArrow=none;html=1;rounded=0;strokeWidth=5;entryX=0.25;entryY=0;entryDx=0;entryDy=0;edgeStyle=orthogonalEdgeStyle;" edge="1" parent="1" target="hDYPPicwK_5DRnvfB0r1-10">
          <mxGeometry width="50" height="50" relative="1" as="geometry">
            <mxPoint x="720" y="520" as="sourcePoint" />
            <mxPoint x="1199.9699999999998" y="370" as="targetPoint" />
            <Array as="points">
              <mxPoint x="720" y="470" />
              <mxPoint x="840" y="470" />
            </Array>
          </mxGeometry>
        </mxCell>
        <mxCell id="hDYPPicwK_5DRnvfB0r1-79" value="IN+" style="text;html=1;align=center;verticalAlign=middle;resizable=0;points=[];autosize=1;strokeColor=none;fillColor=none;fontSize=8;" vertex="1" parent="1">
          <mxGeometry x="860" y="520" width="40" height="20" as="geometry" />
        </mxCell>
        <mxCell id="hDYPPicwK_5DRnvfB0r1-80" value="IN-" style="text;html=1;align=center;verticalAlign=middle;resizable=0;points=[];autosize=1;strokeColor=none;fillColor=none;fontSize=8;" vertex="1" parent="1">
          <mxGeometry x="825" y="520" width="30" height="20" as="geometry" />
        </mxCell>
        <mxCell id="hDYPPicwK_5DRnvfB0r1-81" value="OUT-" style="text;html=1;align=center;verticalAlign=middle;resizable=0;points=[];autosize=1;strokeColor=none;fillColor=none;fontSize=8;" vertex="1" parent="1">
          <mxGeometry x="820" y="660" width="40" height="20" as="geometry" />
        </mxCell>
        <mxCell id="hDYPPicwK_5DRnvfB0r1-82" value="OUT+" style="text;html=1;align=center;verticalAlign=middle;resizable=0;points=[];autosize=1;strokeColor=none;fillColor=none;fontSize=8;" vertex="1" parent="1">
          <mxGeometry x="855" y="660" width="50" height="20" as="geometry" />
        </mxCell>
        <mxCell id="hDYPPicwK_5DRnvfB0r1-85" value="" style="endArrow=none;html=1;rounded=0;fillColor=#0050ef;strokeColor=#001DBC;strokeWidth=5;" edge="1" parent="1" source="hDYPPicwK_5DRnvfB0r1-184">
          <mxGeometry width="50" height="50" relative="1" as="geometry">
            <mxPoint x="880" y="390" as="sourcePoint" />
            <mxPoint x="940" y="390.38" as="targetPoint" />
          </mxGeometry>
        </mxCell>
        <mxCell id="hDYPPicwK_5DRnvfB0r1-86" value="" style="endArrow=none;html=1;rounded=0;strokeWidth=5;" edge="1" parent="1">
          <mxGeometry width="50" height="50" relative="1" as="geometry">
            <mxPoint x="840" y="470" as="sourcePoint" />
            <mxPoint x="940" y="470" as="targetPoint" />
          </mxGeometry>
        </mxCell>
        <mxCell id="hDYPPicwK_5DRnvfB0r1-84" value="" style="endArrow=none;html=1;rounded=0;fillColor=#0050ef;strokeColor=#001DBC;strokeWidth=5;" edge="1" parent="1">
          <mxGeometry width="50" height="50" relative="1" as="geometry">
            <mxPoint x="880" y="520" as="sourcePoint" />
            <mxPoint x="880" y="380" as="targetPoint" />
          </mxGeometry>
        </mxCell>
        <mxCell id="hDYPPicwK_5DRnvfB0r1-87" value="" style="endArrow=none;html=1;rounded=0;edgeStyle=orthogonalEdgeStyle;strokeWidth=5;" edge="1" parent="1">
          <mxGeometry width="50" height="50" relative="1" as="geometry">
            <mxPoint x="940" y="302" as="sourcePoint" />
            <mxPoint x="840" y="470" as="targetPoint" />
          </mxGeometry>
        </mxCell>
        <mxCell id="hDYPPicwK_5DRnvfB0r1-83" value="" style="endArrow=none;html=1;rounded=0;strokeWidth=5;fillColor=#0050ef;strokeColor=#001DBC;edgeStyle=orthogonalEdgeStyle;exitX=-0.117;exitY=0.528;exitDx=0;exitDy=0;exitPerimeter=0;" edge="1" parent="1" source="hDYPPicwK_5DRnvfB0r1-91">
          <mxGeometry width="50" height="50" relative="1" as="geometry">
            <mxPoint x="1040" y="140" as="sourcePoint" />
            <mxPoint x="699.55" y="400" as="targetPoint" />
            <Array as="points">
              <mxPoint x="880" y="221" />
              <mxPoint x="880" y="440" />
              <mxPoint x="700" y="440" />
            </Array>
          </mxGeometry>
        </mxCell>
        <mxCell id="hDYPPicwK_5DRnvfB0r1-88" value="" style="endArrow=none;html=1;rounded=0;strokeWidth=5;" edge="1" parent="1">
          <mxGeometry width="50" height="50" relative="1" as="geometry">
            <mxPoint x="840" y="720" as="sourcePoint" />
            <mxPoint x="840" y="680" as="targetPoint" />
          </mxGeometry>
        </mxCell>
        <mxCell id="hDYPPicwK_5DRnvfB0r1-90" value="IN" style="text;html=1;align=center;verticalAlign=middle;resizable=0;points=[];autosize=1;strokeColor=none;fillColor=none;fontSize=8;" vertex="1" parent="1">
          <mxGeometry x="940" y="380" width="30" height="20" as="geometry" />
        </mxCell>
        <mxCell id="hDYPPicwK_5DRnvfB0r1-91" value="IN" style="text;html=1;align=center;verticalAlign=middle;resizable=0;points=[];autosize=1;strokeColor=none;fillColor=none;fontSize=8;" vertex="1" parent="1">
          <mxGeometry x="940" y="210.88" width="30" height="20" as="geometry" />
        </mxCell>
        <mxCell id="hDYPPicwK_5DRnvfB0r1-92" value="GND" style="text;html=1;align=center;verticalAlign=middle;resizable=0;points=[];autosize=1;strokeColor=none;fillColor=none;fontSize=8;" vertex="1" parent="1">
          <mxGeometry x="940" y="289.63" width="40" height="20" as="geometry" />
        </mxCell>
        <mxCell id="hDYPPicwK_5DRnvfB0r1-93" value="GND" style="text;html=1;align=center;verticalAlign=middle;resizable=0;points=[];autosize=1;strokeColor=none;fillColor=none;fontSize=8;" vertex="1" parent="1">
          <mxGeometry x="940" y="460" width="40" height="20" as="geometry" />
        </mxCell>
        <mxCell id="hDYPPicwK_5DRnvfB0r1-94" value="GND" style="text;html=1;align=center;verticalAlign=middle;resizable=0;points=[];autosize=1;strokeColor=none;fillColor=none;fontSize=8;" vertex="1" parent="1">
          <mxGeometry x="1020" y="460" width="40" height="20" as="geometry" />
        </mxCell>
        <mxCell id="hDYPPicwK_5DRnvfB0r1-124" value="" style="endArrow=none;html=1;rounded=0;strokeWidth=2;entryX=0;entryY=0.875;entryDx=0;entryDy=0;entryPerimeter=0;dashed=1;dashPattern=1 1;" edge="1" parent="1" target="hDYPPicwK_5DRnvfB0r1-13">
          <mxGeometry width="50" height="50" relative="1" as="geometry">
            <mxPoint x="840" y="700" as="sourcePoint" />
            <mxPoint x="1020" y="700" as="targetPoint" />
          </mxGeometry>
        </mxCell>
        <mxCell id="hDYPPicwK_5DRnvfB0r1-95" value="GND" style="text;html=1;align=center;verticalAlign=middle;resizable=0;points=[];autosize=1;strokeColor=none;fillColor=none;fontSize=8;" vertex="1" parent="1">
          <mxGeometry x="1020" y="289.63" width="40" height="20" as="geometry" />
        </mxCell>
        <mxCell id="hDYPPicwK_5DRnvfB0r1-96" value="GND" style="text;html=1;align=center;verticalAlign=middle;resizable=0;points=[];autosize=1;strokeColor=none;fillColor=none;fontSize=8;" vertex="1" parent="1">
          <mxGeometry x="820" y="720" width="40" height="20" as="geometry" />
        </mxCell>
        <mxCell id="hDYPPicwK_5DRnvfB0r1-89" value="" style="endArrow=none;html=1;rounded=0;strokeWidth=5;fillColor=#0050ef;strokeColor=#001DBC;" edge="1" parent="1">
          <mxGeometry width="50" height="50" relative="1" as="geometry">
            <mxPoint x="880" y="720" as="sourcePoint" />
            <mxPoint x="879.55" y="680" as="targetPoint" />
          </mxGeometry>
        </mxCell>
        <mxCell id="hDYPPicwK_5DRnvfB0r1-97" value="IN" style="text;html=1;align=center;verticalAlign=middle;resizable=0;points=[];autosize=1;strokeColor=none;fillColor=none;fontSize=8;" vertex="1" parent="1">
          <mxGeometry x="865" y="720" width="30" height="20" as="geometry" />
        </mxCell>
        <mxCell id="hDYPPicwK_5DRnvfB0r1-98" value="5V" style="text;html=1;align=center;verticalAlign=middle;resizable=0;points=[];autosize=1;strokeColor=none;fillColor=none;fontSize=8;" vertex="1" parent="1">
          <mxGeometry x="870" y="780" width="30" height="20" as="geometry" />
        </mxCell>
        <mxCell id="hDYPPicwK_5DRnvfB0r1-100" value="" style="endArrow=none;html=1;rounded=0;strokeWidth=5;" edge="1" parent="1">
          <mxGeometry width="50" height="50" relative="1" as="geometry">
            <mxPoint x="1220" y="299.31" as="sourcePoint" />
            <mxPoint x="1060" y="299.31" as="targetPoint" />
          </mxGeometry>
        </mxCell>
        <mxCell id="hDYPPicwK_5DRnvfB0r1-101" value="" style="endArrow=none;html=1;rounded=0;strokeWidth=5;" edge="1" parent="1">
          <mxGeometry width="50" height="50" relative="1" as="geometry">
            <mxPoint x="1220" y="470" as="sourcePoint" />
            <mxPoint x="1060" y="470" as="targetPoint" />
          </mxGeometry>
        </mxCell>
        <mxCell id="hDYPPicwK_5DRnvfB0r1-102" value="" style="endArrow=none;html=1;rounded=0;fillColor=#0050ef;strokeColor=#001DBC;strokeWidth=5;" edge="1" parent="1">
          <mxGeometry width="50" height="50" relative="1" as="geometry">
            <mxPoint x="1220" y="220.56" as="sourcePoint" />
            <mxPoint x="1180" y="220.56" as="targetPoint" />
          </mxGeometry>
        </mxCell>
        <mxCell id="hDYPPicwK_5DRnvfB0r1-103" value="" style="endArrow=none;html=1;rounded=0;fillColor=#0050ef;strokeColor=#001DBC;strokeWidth=5;" edge="1" parent="1">
          <mxGeometry width="50" height="50" relative="1" as="geometry">
            <mxPoint x="1100" y="220.56" as="sourcePoint" />
            <mxPoint x="1060" y="220.56" as="targetPoint" />
          </mxGeometry>
        </mxCell>
        <mxCell id="hDYPPicwK_5DRnvfB0r1-104" value="" style="endArrow=none;html=1;rounded=0;fillColor=#0050ef;strokeColor=#001DBC;strokeWidth=5;" edge="1" parent="1">
          <mxGeometry width="50" height="50" relative="1" as="geometry">
            <mxPoint x="1100" y="389.35" as="sourcePoint" />
            <mxPoint x="1060" y="389.35" as="targetPoint" />
          </mxGeometry>
        </mxCell>
        <mxCell id="hDYPPicwK_5DRnvfB0r1-132" value="" style="endArrow=none;html=1;rounded=0;strokeWidth=2;dashed=1;dashPattern=1 1;edgeStyle=orthogonalEdgeStyle;" edge="1" parent="1">
          <mxGeometry width="50" height="50" relative="1" as="geometry">
            <mxPoint x="1430" y="190" as="sourcePoint" />
            <mxPoint x="1110" y="510" as="targetPoint" />
            <Array as="points">
              <mxPoint x="1430" y="510" />
              <mxPoint x="1110" y="510" />
            </Array>
          </mxGeometry>
        </mxCell>
        <mxCell id="hDYPPicwK_5DRnvfB0r1-105" value="" style="endArrow=none;html=1;rounded=0;fillColor=#0050ef;strokeColor=#001DBC;strokeWidth=5;" edge="1" parent="1">
          <mxGeometry width="50" height="50" relative="1" as="geometry">
            <mxPoint x="1220" y="389.35" as="sourcePoint" />
            <mxPoint x="1180" y="389.35" as="targetPoint" />
          </mxGeometry>
        </mxCell>
        <mxCell id="hDYPPicwK_5DRnvfB0r1-106" value="-" style="text;html=1;align=center;verticalAlign=middle;resizable=0;points=[];autosize=1;strokeColor=none;fillColor=none;fontSize=20;" vertex="1" parent="1">
          <mxGeometry x="1220" y="450" width="30" height="40" as="geometry" />
        </mxCell>
        <mxCell id="hDYPPicwK_5DRnvfB0r1-107" value="+" style="text;html=1;align=center;verticalAlign=middle;resizable=0;points=[];autosize=1;strokeColor=none;fillColor=none;fontSize=20;" vertex="1" parent="1">
          <mxGeometry x="1215" y="370" width="40" height="40" as="geometry" />
        </mxCell>
        <mxCell id="hDYPPicwK_5DRnvfB0r1-111" value="-" style="text;html=1;align=center;verticalAlign=middle;resizable=0;points=[];autosize=1;strokeColor=none;fillColor=none;fontSize=20;" vertex="1" parent="1">
          <mxGeometry x="1220" y="280.26" width="30" height="40" as="geometry" />
        </mxCell>
        <mxCell id="hDYPPicwK_5DRnvfB0r1-112" value="+" style="text;html=1;align=center;verticalAlign=middle;resizable=0;points=[];autosize=1;strokeColor=none;fillColor=none;fontSize=20;" vertex="1" parent="1">
          <mxGeometry x="1215" y="200.26" width="40" height="40" as="geometry" />
        </mxCell>
        <mxCell id="hDYPPicwK_5DRnvfB0r1-113" value="-" style="text;html=1;align=center;verticalAlign=middle;resizable=0;points=[];autosize=1;strokeColor=none;fillColor=none;fontSize=20;" vertex="1" parent="1">
          <mxGeometry x="245" y="760" width="30" height="40" as="geometry" />
        </mxCell>
        <mxCell id="hDYPPicwK_5DRnvfB0r1-114" value="+" style="text;html=1;align=center;verticalAlign=middle;resizable=0;points=[];autosize=1;strokeColor=none;fillColor=none;fontSize=20;" vertex="1" parent="1">
          <mxGeometry x="240" y="680" width="40" height="40" as="geometry" />
        </mxCell>
        <mxCell id="hDYPPicwK_5DRnvfB0r1-116" value="OUT" style="text;html=1;align=center;verticalAlign=middle;resizable=0;points=[];autosize=1;strokeColor=none;fillColor=none;fontSize=8;" vertex="1" parent="1">
          <mxGeometry x="1020" y="210.88" width="40" height="20" as="geometry" />
        </mxCell>
        <mxCell id="hDYPPicwK_5DRnvfB0r1-117" value="OUT" style="text;html=1;align=center;verticalAlign=middle;resizable=0;points=[];autosize=1;strokeColor=none;fillColor=none;fontSize=8;" vertex="1" parent="1">
          <mxGeometry x="1020" y="380" width="40" height="20" as="geometry" />
        </mxCell>
        <mxCell id="hDYPPicwK_5DRnvfB0r1-118" value="5V" style="text;html=1;align=center;verticalAlign=middle;resizable=0;points=[];autosize=1;strokeColor=none;fillColor=none;fontSize=8;" vertex="1" parent="1">
          <mxGeometry x="1055" y="700" width="30" height="20" as="geometry" />
        </mxCell>
        <mxCell id="hDYPPicwK_5DRnvfB0r1-119" value="GND" style="text;html=1;align=center;verticalAlign=middle;resizable=0;points=[];autosize=1;strokeColor=none;fillColor=none;fontSize=8;" vertex="1" parent="1">
          <mxGeometry x="1010" y="690" width="40" height="20" as="geometry" />
        </mxCell>
        <mxCell id="hDYPPicwK_5DRnvfB0r1-120" value="SDA" style="text;html=1;align=center;verticalAlign=middle;resizable=0;points=[];autosize=1;strokeColor=none;fillColor=none;fontSize=8;" vertex="1" parent="1">
          <mxGeometry x="1090" y="590" width="40" height="20" as="geometry" />
        </mxCell>
        <mxCell id="hDYPPicwK_5DRnvfB0r1-121" value="SCL" style="text;html=1;align=center;verticalAlign=middle;resizable=0;points=[];autosize=1;strokeColor=none;fillColor=none;fontSize=8;" vertex="1" parent="1">
          <mxGeometry x="1090" y="570" width="40" height="20" as="geometry" />
        </mxCell>
        <mxCell id="hDYPPicwK_5DRnvfB0r1-122" value="SW2" style="text;html=1;align=center;verticalAlign=middle;resizable=0;points=[];autosize=1;strokeColor=none;fillColor=none;fontSize=8;" vertex="1" parent="1">
          <mxGeometry x="1090" y="670" width="40" height="20" as="geometry" />
        </mxCell>
        <mxCell id="hDYPPicwK_5DRnvfB0r1-123" value="SW1" style="text;html=1;align=center;verticalAlign=middle;resizable=0;points=[];autosize=1;strokeColor=none;fillColor=none;fontSize=8;" vertex="1" parent="1">
          <mxGeometry x="1090" y="690" width="40" height="20" as="geometry" />
        </mxCell>
        <mxCell id="hDYPPicwK_5DRnvfB0r1-126" value="" style="endArrow=none;html=1;rounded=0;strokeWidth=2;edgeStyle=orthogonalEdgeStyle;entryX=0.5;entryY=1;entryDx=0;entryDy=0;entryPerimeter=0;dashed=1;dashPattern=1 1;fillColor=#0050ef;strokeColor=#001DBC;" edge="1" parent="1" target="hDYPPicwK_5DRnvfB0r1-13">
          <mxGeometry width="50" height="50" relative="1" as="geometry">
            <mxPoint x="900" y="789.5699999999999" as="sourcePoint" />
            <mxPoint x="1100" y="730" as="targetPoint" />
          </mxGeometry>
        </mxCell>
        <mxCell id="hDYPPicwK_5DRnvfB0r1-128" value="" style="endArrow=none;html=1;rounded=0;strokeWidth=2;dashed=1;dashPattern=1 1;edgeStyle=orthogonalEdgeStyle;exitX=0.369;exitY=1.045;exitDx=0;exitDy=0;fillColor=#0050ef;strokeColor=#001DBC;exitPerimeter=0;" edge="1" parent="1" source="hDYPPicwK_5DRnvfB0r1-17">
          <mxGeometry width="50" height="50" relative="1" as="geometry">
            <mxPoint x="1140.04" y="470" as="sourcePoint" />
            <mxPoint x="990" y="790" as="targetPoint" />
            <Array as="points">
              <mxPoint x="1130" y="520" />
              <mxPoint x="990" y="520" />
              <mxPoint x="990" y="790" />
            </Array>
          </mxGeometry>
        </mxCell>
        <mxCell id="hDYPPicwK_5DRnvfB0r1-129" value="" style="endArrow=none;html=1;rounded=0;strokeWidth=2;dashed=1;dashPattern=1 1;edgeStyle=orthogonalEdgeStyle;fillColor=#60a917;strokeColor=#2D7600;entryX=1.042;entryY=0.485;entryDx=0;entryDy=0;entryPerimeter=0;exitX=0.63;exitY=1.013;exitDx=0;exitDy=0;exitPerimeter=0;" edge="1" parent="1" source="hDYPPicwK_5DRnvfB0r1-17" target="hDYPPicwK_5DRnvfB0r1-121">
          <mxGeometry width="50" height="50" relative="1" as="geometry">
            <mxPoint x="1149" y="460" as="sourcePoint" />
            <mxPoint x="1170" y="580" as="targetPoint" />
            <Array as="points">
              <mxPoint x="1149" y="451" />
              <mxPoint x="1149" y="580" />
            </Array>
          </mxGeometry>
        </mxCell>
        <mxCell id="hDYPPicwK_5DRnvfB0r1-130" value="" style="endArrow=none;html=1;rounded=0;strokeWidth=2;dashed=1;dashPattern=1 1;edgeStyle=orthogonalEdgeStyle;fillColor=#fa6800;strokeColor=#C73500;exitX=0.608;exitY=1.013;exitDx=0;exitDy=0;exitPerimeter=0;entryX=1;entryY=0.5;entryDx=0;entryDy=0;entryPerimeter=0;" edge="1" parent="1" target="hDYPPicwK_5DRnvfB0r1-120">
          <mxGeometry width="50" height="50" relative="1" as="geometry">
            <mxPoint x="1169.9999999999998" y="449.99999999999994" as="sourcePoint" />
            <mxPoint x="1183.32" y="600" as="targetPoint" />
            <Array as="points">
              <mxPoint x="1170" y="600" />
            </Array>
          </mxGeometry>
        </mxCell>
        <mxCell id="hDYPPicwK_5DRnvfB0r1-131" value="" style="endArrow=none;html=1;rounded=0;strokeWidth=2;dashed=1;dashPattern=1 1;edgeStyle=orthogonalEdgeStyle;fillColor=#0050ef;strokeColor=#001DBC;" edge="1" parent="1">
          <mxGeometry width="50" height="50" relative="1" as="geometry">
            <mxPoint x="1439.8695652173913" y="180" as="sourcePoint" />
            <mxPoint x="1129" y="520" as="targetPoint" />
            <Array as="points">
              <mxPoint x="1440" y="520" />
              <mxPoint x="1129" y="520" />
            </Array>
          </mxGeometry>
        </mxCell>
        <mxCell id="hDYPPicwK_5DRnvfB0r1-133" value="" style="endArrow=none;html=1;rounded=0;strokeWidth=2;dashed=1;dashPattern=1 1;edgeStyle=orthogonalEdgeStyle;fillColor=#fa6800;strokeColor=#C73500;" edge="1" parent="1">
          <mxGeometry width="50" height="50" relative="1" as="geometry">
            <mxPoint x="1450" y="160" as="sourcePoint" />
            <mxPoint x="1170" y="540" as="targetPoint" />
            <Array as="points">
              <mxPoint x="1450" y="160" />
              <mxPoint x="1460" y="160" />
              <mxPoint x="1460" y="540" />
            </Array>
          </mxGeometry>
        </mxCell>
        <mxCell id="hDYPPicwK_5DRnvfB0r1-134" value="" style="endArrow=none;html=1;rounded=0;strokeWidth=2;dashed=1;dashPattern=1 1;edgeStyle=orthogonalEdgeStyle;fillColor=#60a917;strokeColor=#2D7600;" edge="1" parent="1">
          <mxGeometry width="50" height="50" relative="1" as="geometry">
            <mxPoint x="1450" y="170" as="sourcePoint" />
            <mxPoint x="1150" y="530" as="targetPoint" />
            <Array as="points">
              <mxPoint x="1450" y="530" />
            </Array>
          </mxGeometry>
        </mxCell>
        <mxCell id="hDYPPicwK_5DRnvfB0r1-135" value="" style="endArrow=none;html=1;rounded=0;strokeWidth=2;dashed=1;dashPattern=1 1;edgeStyle=orthogonalEdgeStyle;fillColor=#0050ef;strokeColor=#001DBC;" edge="1" parent="1">
          <mxGeometry width="50" height="50" relative="1" as="geometry">
            <mxPoint x="1440" y="350" as="sourcePoint" />
            <mxPoint x="1130" y="280" as="targetPoint" />
            <Array as="points">
              <mxPoint x="1130" y="350" />
              <mxPoint x="1130" y="280" />
            </Array>
          </mxGeometry>
        </mxCell>
        <mxCell id="hDYPPicwK_5DRnvfB0r1-136" value="" style="endArrow=none;html=1;rounded=0;strokeWidth=2;dashed=1;dashPattern=1 1;edgeStyle=orthogonalEdgeStyle;entryX=0.122;entryY=1.02;entryDx=0;entryDy=0;entryPerimeter=0;" edge="1" parent="1" target="hDYPPicwK_5DRnvfB0r1-16">
          <mxGeometry width="50" height="50" relative="1" as="geometry">
            <mxPoint x="1430" y="360" as="sourcePoint" />
            <mxPoint x="1110" y="290" as="targetPoint" />
            <Array as="points">
              <mxPoint x="1110" y="360" />
            </Array>
          </mxGeometry>
        </mxCell>
        <mxCell id="hDYPPicwK_5DRnvfB0r1-137" value="" style="endArrow=none;html=1;rounded=0;strokeWidth=2;dashed=1;dashPattern=1 1;edgeStyle=orthogonalEdgeStyle;fillColor=#fa6800;strokeColor=#C73500;entryX=0.87;entryY=1.037;entryDx=0;entryDy=0;entryPerimeter=0;" edge="1" parent="1" target="hDYPPicwK_5DRnvfB0r1-16">
          <mxGeometry width="50" height="50" relative="1" as="geometry">
            <mxPoint x="1460" y="330" as="sourcePoint" />
            <mxPoint x="1170" y="286.26" as="targetPoint" />
            <Array as="points">
              <mxPoint x="1170" y="330" />
            </Array>
          </mxGeometry>
        </mxCell>
        <mxCell id="hDYPPicwK_5DRnvfB0r1-138" value="" style="endArrow=none;html=1;rounded=0;strokeWidth=2;dashed=1;dashPattern=1 1;edgeStyle=orthogonalEdgeStyle;fillColor=#60a917;strokeColor=#2D7600;exitX=0.619;exitY=1.034;exitDx=0;exitDy=0;exitPerimeter=0;" edge="1" parent="1" source="hDYPPicwK_5DRnvfB0r1-16">
          <mxGeometry width="50" height="50" relative="1" as="geometry">
            <mxPoint x="1150" y="289.63" as="sourcePoint" />
            <mxPoint x="1450" y="340" as="targetPoint" />
            <Array as="points">
              <mxPoint x="1150" y="340" />
            </Array>
          </mxGeometry>
        </mxCell>
        <mxCell id="hDYPPicwK_5DRnvfB0r1-139" value="" style="endArrow=none;html=1;rounded=0;strokeWidth=2;dashed=1;dashPattern=1 1;edgeStyle=orthogonalEdgeStyle;entryX=0.125;entryY=1;entryDx=0;entryDy=0;entryPerimeter=0;" edge="1" parent="1" target="hDYPPicwK_5DRnvfB0r1-1">
          <mxGeometry width="50" height="50" relative="1" as="geometry">
            <mxPoint x="1430" y="192" as="sourcePoint" />
            <mxPoint x="430" y="151.92999999999998" as="targetPoint" />
            <Array as="points">
              <mxPoint x="430" y="192" />
            </Array>
          </mxGeometry>
        </mxCell>
        <mxCell id="hDYPPicwK_5DRnvfB0r1-141" value="" style="endArrow=none;html=1;rounded=0;strokeWidth=2;dashed=1;dashPattern=1 1;edgeStyle=orthogonalEdgeStyle;fillColor=#0050ef;strokeColor=#001DBC;entryX=0.379;entryY=0.997;entryDx=0;entryDy=0;entryPerimeter=0;" edge="1" parent="1" target="hDYPPicwK_5DRnvfB0r1-1">
          <mxGeometry width="50" height="50" relative="1" as="geometry">
            <mxPoint x="1440" y="182" as="sourcePoint" />
            <mxPoint x="450" y="151.92999999999998" as="targetPoint" />
            <Array as="points">
              <mxPoint x="450" y="182" />
            </Array>
          </mxGeometry>
        </mxCell>
        <mxCell id="hDYPPicwK_5DRnvfB0r1-143" value="" style="endArrow=none;html=1;rounded=0;strokeWidth=2;dashed=1;dashPattern=1 1;edgeStyle=orthogonalEdgeStyle;fillColor=#fa6800;strokeColor=#C73500;entryX=0.874;entryY=1.019;entryDx=0;entryDy=0;entryPerimeter=0;" edge="1" parent="1" target="hDYPPicwK_5DRnvfB0r1-1">
          <mxGeometry width="50" height="50" relative="1" as="geometry">
            <mxPoint x="1450" y="160.07" as="sourcePoint" />
            <mxPoint x="490" y="160" as="targetPoint" />
            <Array as="points">
              <mxPoint x="770" y="160" />
              <mxPoint x="490" y="160" />
            </Array>
          </mxGeometry>
        </mxCell>
        <mxCell id="hDYPPicwK_5DRnvfB0r1-144" value="" style="endArrow=none;html=1;rounded=0;strokeWidth=2;dashed=1;dashPattern=1 1;edgeStyle=orthogonalEdgeStyle;fillColor=#60a917;strokeColor=#2D7600;exitX=0.632;exitY=1.006;exitDx=0;exitDy=0;exitPerimeter=0;" edge="1" parent="1" source="hDYPPicwK_5DRnvfB0r1-1">
          <mxGeometry width="50" height="50" relative="1" as="geometry">
            <mxPoint x="470" y="160" as="sourcePoint" />
            <mxPoint x="1450" y="170" as="targetPoint" />
            <Array as="points">
              <mxPoint x="471" y="170" />
              <mxPoint x="490" y="170" />
            </Array>
          </mxGeometry>
        </mxCell>
        <mxCell id="hDYPPicwK_5DRnvfB0r1-145" value="" style="endArrow=none;html=1;rounded=0;strokeWidth=2;fillColor=#d80073;strokeColor=#A50040;dashed=1;dashPattern=1 1;edgeStyle=orthogonalEdgeStyle;" edge="1" parent="1">
          <mxGeometry width="50" height="50" relative="1" as="geometry">
            <mxPoint x="1130" y="700" as="sourcePoint" />
            <mxPoint x="790" y="240" as="targetPoint" />
            <Array as="points">
              <mxPoint x="1150" y="700" />
              <mxPoint x="1150" y="810" />
              <mxPoint x="790" y="810" />
              <mxPoint x="790" y="400" />
            </Array>
          </mxGeometry>
        </mxCell>
        <mxCell id="hDYPPicwK_5DRnvfB0r1-147" value="" style="endArrow=none;html=1;rounded=0;strokeWidth=2;fillColor=#76608a;strokeColor=#432D57;dashed=1;dashPattern=1 1;edgeStyle=orthogonalEdgeStyle;" edge="1" parent="1">
          <mxGeometry width="50" height="50" relative="1" as="geometry">
            <mxPoint x="1130" y="680" as="sourcePoint" />
            <mxPoint x="780" y="260" as="targetPoint" />
            <Array as="points">
              <mxPoint x="1160" y="680" />
              <mxPoint x="1160" y="820" />
              <mxPoint x="780" y="820" />
              <mxPoint x="780" y="750" />
            </Array>
          </mxGeometry>
        </mxCell>
        <mxCell id="hDYPPicwK_5DRnvfB0r1-148" value="" style="endArrow=none;html=1;rounded=0;edgeStyle=orthogonalEdgeStyle;strokeWidth=2;fillColor=#76608a;strokeColor=#432D57;dashed=1;dashPattern=1 1;" edge="1" parent="1">
          <mxGeometry width="50" height="50" relative="1" as="geometry">
            <mxPoint x="780" y="261" as="sourcePoint" />
            <mxPoint x="700" y="280.26" as="targetPoint" />
          </mxGeometry>
        </mxCell>
        <mxCell id="hDYPPicwK_5DRnvfB0r1-149" value="" style="endArrow=none;html=1;rounded=0;edgeStyle=orthogonalEdgeStyle;strokeWidth=2;fillColor=#d80073;strokeColor=#A50040;dashed=1;dashPattern=1 1;" edge="1" parent="1">
          <mxGeometry width="50" height="50" relative="1" as="geometry">
            <mxPoint x="790" y="240" as="sourcePoint" />
            <mxPoint x="460" y="280" as="targetPoint" />
            <Array as="points">
              <mxPoint x="460" y="240" />
            </Array>
          </mxGeometry>
        </mxCell>
        <mxCell id="hDYPPicwK_5DRnvfB0r1-150" value="" style="endArrow=none;html=1;rounded=0;strokeWidth=2;dashed=1;dashPattern=1 1;edgeStyle=orthogonalEdgeStyle;fillColor=#fa6800;strokeColor=#C73500;" edge="1" parent="1">
          <mxGeometry width="50" height="50" relative="1" as="geometry">
            <mxPoint x="1170" y="600" as="sourcePoint" />
            <mxPoint x="390" y="830" as="targetPoint" />
            <Array as="points">
              <mxPoint x="1170" y="830" />
              <mxPoint x="900" y="830" />
            </Array>
          </mxGeometry>
        </mxCell>
        <mxCell id="hDYPPicwK_5DRnvfB0r1-151" value="" style="endArrow=none;html=1;rounded=0;strokeWidth=2;dashed=1;dashPattern=1 1;edgeStyle=orthogonalEdgeStyle;fillColor=#60a917;strokeColor=#2D7600;" edge="1" parent="1">
          <mxGeometry width="50" height="50" relative="1" as="geometry">
            <mxPoint x="1180" y="530" as="sourcePoint" />
            <mxPoint x="370" y="840" as="targetPoint" />
            <Array as="points">
              <mxPoint x="1180" y="840" />
              <mxPoint x="880" y="840" />
            </Array>
          </mxGeometry>
        </mxCell>
        <mxCell id="hDYPPicwK_5DRnvfB0r1-152" value="" style="endArrow=none;html=1;rounded=0;strokeWidth=2;dashed=1;dashPattern=1 1;edgeStyle=orthogonalEdgeStyle;fillColor=#0050ef;strokeColor=#001DBC;" edge="1" parent="1">
          <mxGeometry width="50" height="50" relative="1" as="geometry">
            <mxPoint x="1190" y="520" as="sourcePoint" />
            <mxPoint x="350" y="850" as="targetPoint" />
            <Array as="points">
              <mxPoint x="1190.57" y="850" />
              <mxPoint x="879.5699999999999" y="850" />
            </Array>
          </mxGeometry>
        </mxCell>
        <mxCell id="hDYPPicwK_5DRnvfB0r1-153" value="" style="endArrow=none;html=1;rounded=0;strokeWidth=2;dashed=1;dashPattern=1 1;edgeStyle=orthogonalEdgeStyle;" edge="1" parent="1">
          <mxGeometry width="50" height="50" relative="1" as="geometry">
            <mxPoint x="1200" y="510" as="sourcePoint" />
            <mxPoint x="330" y="860" as="targetPoint" />
            <Array as="points">
              <mxPoint x="1200" y="860" />
              <mxPoint x="880" y="860" />
            </Array>
          </mxGeometry>
        </mxCell>
        <mxCell id="hDYPPicwK_5DRnvfB0r1-158" value="" style="endArrow=none;html=1;rounded=0;strokeWidth=2;dashed=1;dashPattern=1 1;edgeStyle=orthogonalEdgeStyle;fillColor=#fa6800;strokeColor=#C73500;" edge="1" parent="1">
          <mxGeometry width="50" height="50" relative="1" as="geometry">
            <mxPoint x="390" y="830" as="sourcePoint" />
            <mxPoint x="390" y="760" as="targetPoint" />
            <Array as="points">
              <mxPoint x="390" y="830" />
            </Array>
          </mxGeometry>
        </mxCell>
        <mxCell id="hDYPPicwK_5DRnvfB0r1-159" value="" style="endArrow=none;html=1;rounded=0;strokeWidth=2;dashed=1;dashPattern=1 1;edgeStyle=orthogonalEdgeStyle;fillColor=#60a917;strokeColor=#2D7600;exitX=0.632;exitY=1.006;exitDx=0;exitDy=0;exitPerimeter=0;" edge="1" parent="1">
          <mxGeometry width="50" height="50" relative="1" as="geometry">
            <mxPoint x="370.05999999999995" y="760" as="sourcePoint" />
            <mxPoint x="370" y="840" as="targetPoint" />
            <Array as="points">
              <mxPoint x="370" y="810" />
              <mxPoint x="370" y="810" />
            </Array>
          </mxGeometry>
        </mxCell>
        <mxCell id="hDYPPicwK_5DRnvfB0r1-160" value="" style="endArrow=none;html=1;rounded=0;strokeWidth=2;dashed=1;dashPattern=1 1;edgeStyle=orthogonalEdgeStyle;fillColor=#0050ef;strokeColor=#001DBC;entryX=0.379;entryY=0.997;entryDx=0;entryDy=0;entryPerimeter=0;" edge="1" parent="1">
          <mxGeometry width="50" height="50" relative="1" as="geometry">
            <mxPoint x="350" y="850" as="sourcePoint" />
            <mxPoint x="350" y="760" as="targetPoint" />
            <Array as="points">
              <mxPoint x="350" y="792" />
            </Array>
          </mxGeometry>
        </mxCell>
        <mxCell id="hDYPPicwK_5DRnvfB0r1-161" value="" style="endArrow=none;html=1;rounded=0;strokeWidth=2;dashed=1;dashPattern=1 1;edgeStyle=orthogonalEdgeStyle;entryX=0.125;entryY=1;entryDx=0;entryDy=0;entryPerimeter=0;" edge="1" parent="1">
          <mxGeometry width="50" height="50" relative="1" as="geometry">
            <mxPoint x="330" y="860" as="sourcePoint" />
            <mxPoint x="330" y="760" as="targetPoint" />
            <Array as="points">
              <mxPoint x="330" y="802" />
            </Array>
          </mxGeometry>
        </mxCell>
        <mxCell id="hDYPPicwK_5DRnvfB0r1-162" value="VCC" style="text;html=1;align=center;verticalAlign=middle;resizable=0;points=[];autosize=1;strokeColor=none;fillColor=none;fontSize=6;" vertex="1" parent="1">
          <mxGeometry x="330" y="740" width="40" height="20" as="geometry" />
        </mxCell>
        <mxCell id="hDYPPicwK_5DRnvfB0r1-164" value="GND" style="text;html=1;align=center;verticalAlign=middle;resizable=0;points=[];autosize=1;strokeColor=none;fillColor=none;fontSize=6;" vertex="1" parent="1">
          <mxGeometry x="310" y="740" width="40" height="20" as="geometry" />
        </mxCell>
        <mxCell id="hDYPPicwK_5DRnvfB0r1-165" value="SCL" style="text;html=1;align=center;verticalAlign=middle;resizable=0;points=[];autosize=1;strokeColor=none;fillColor=none;fontSize=6;" vertex="1" parent="1">
          <mxGeometry x="350" y="740" width="40" height="20" as="geometry" />
        </mxCell>
        <mxCell id="hDYPPicwK_5DRnvfB0r1-166" value="SDA" style="text;html=1;align=center;verticalAlign=middle;resizable=0;points=[];autosize=1;strokeColor=none;fillColor=none;fontSize=6;" vertex="1" parent="1">
          <mxGeometry x="370" y="740" width="40" height="20" as="geometry" />
        </mxCell>
        <mxCell id="hDYPPicwK_5DRnvfB0r1-167" value="VCC" style="text;html=1;align=center;verticalAlign=middle;resizable=0;points=[];autosize=1;strokeColor=none;fillColor=none;fontSize=6;" vertex="1" parent="1">
          <mxGeometry x="430" y="130" width="40" height="20" as="geometry" />
        </mxCell>
        <mxCell id="hDYPPicwK_5DRnvfB0r1-168" value="GND" style="text;html=1;align=center;verticalAlign=middle;resizable=0;points=[];autosize=1;strokeColor=none;fillColor=none;fontSize=6;" vertex="1" parent="1">
          <mxGeometry x="410" y="130" width="40" height="20" as="geometry" />
        </mxCell>
        <mxCell id="hDYPPicwK_5DRnvfB0r1-169" value="SCL" style="text;html=1;align=center;verticalAlign=middle;resizable=0;points=[];autosize=1;strokeColor=none;fillColor=none;fontSize=6;" vertex="1" parent="1">
          <mxGeometry x="450" y="130" width="40" height="20" as="geometry" />
        </mxCell>
        <mxCell id="hDYPPicwK_5DRnvfB0r1-170" value="SDA" style="text;html=1;align=center;verticalAlign=middle;resizable=0;points=[];autosize=1;strokeColor=none;fillColor=none;fontSize=6;" vertex="1" parent="1">
          <mxGeometry x="470" y="130" width="40" height="20" as="geometry" />
        </mxCell>
        <mxCell id="hDYPPicwK_5DRnvfB0r1-171" value="VCC" style="text;html=1;align=center;verticalAlign=middle;resizable=0;points=[];autosize=1;strokeColor=none;fillColor=none;fontSize=6;" vertex="1" parent="1">
          <mxGeometry x="1110" y="260" width="40" height="20" as="geometry" />
        </mxCell>
        <mxCell id="hDYPPicwK_5DRnvfB0r1-172" value="GND" style="text;html=1;align=center;verticalAlign=middle;resizable=0;points=[];autosize=1;strokeColor=none;fillColor=none;fontSize=6;" vertex="1" parent="1">
          <mxGeometry x="1090" y="260" width="40" height="20" as="geometry" />
        </mxCell>
        <mxCell id="hDYPPicwK_5DRnvfB0r1-173" value="SCL" style="text;html=1;align=center;verticalAlign=middle;resizable=0;points=[];autosize=1;strokeColor=none;fillColor=none;fontSize=6;" vertex="1" parent="1">
          <mxGeometry x="1130" y="260" width="40" height="20" as="geometry" />
        </mxCell>
        <mxCell id="hDYPPicwK_5DRnvfB0r1-174" value="SDA" style="text;html=1;align=center;verticalAlign=middle;resizable=0;points=[];autosize=1;strokeColor=none;fillColor=none;fontSize=6;" vertex="1" parent="1">
          <mxGeometry x="1150" y="260" width="40" height="20" as="geometry" />
        </mxCell>
        <mxCell id="hDYPPicwK_5DRnvfB0r1-175" value="VCC" style="text;html=1;align=center;verticalAlign=middle;resizable=0;points=[];autosize=1;strokeColor=none;fillColor=none;fontSize=6;" vertex="1" parent="1">
          <mxGeometry x="1110" y="430" width="40" height="20" as="geometry" />
        </mxCell>
        <mxCell id="hDYPPicwK_5DRnvfB0r1-176" value="GND" style="text;html=1;align=center;verticalAlign=middle;resizable=0;points=[];autosize=1;strokeColor=none;fillColor=none;fontSize=6;" vertex="1" parent="1">
          <mxGeometry x="1090" y="430" width="40" height="20" as="geometry" />
        </mxCell>
        <mxCell id="hDYPPicwK_5DRnvfB0r1-177" value="SCL" style="text;html=1;align=center;verticalAlign=middle;resizable=0;points=[];autosize=1;strokeColor=none;fillColor=none;fontSize=6;" vertex="1" parent="1">
          <mxGeometry x="1130" y="430" width="40" height="20" as="geometry" />
        </mxCell>
        <mxCell id="hDYPPicwK_5DRnvfB0r1-178" value="SDA" style="text;html=1;align=center;verticalAlign=middle;resizable=0;points=[];autosize=1;strokeColor=none;fillColor=none;fontSize=6;" vertex="1" parent="1">
          <mxGeometry x="1150" y="430" width="40" height="20" as="geometry" />
        </mxCell>
        <mxCell id="hDYPPicwK_5DRnvfB0r1-179" value="24V" style="text;html=1;align=center;verticalAlign=middle;resizable=0;points=[];autosize=1;strokeColor=none;fillColor=none;" vertex="1" parent="1">
          <mxGeometry x="510" y="95" width="40" height="30" as="geometry" />
        </mxCell>
        <mxCell id="hDYPPicwK_5DRnvfB0r1-180" value="12V" style="text;html=1;align=center;verticalAlign=middle;resizable=0;points=[];autosize=1;strokeColor=none;fillColor=none;" vertex="1" parent="1">
          <mxGeometry x="570" y="670" width="40" height="30" as="geometry" />
        </mxCell>
        <mxCell id="hDYPPicwK_5DRnvfB0r1-181" value="7V" style="text;html=1;align=center;verticalAlign=middle;resizable=0;points=[];autosize=1;strokeColor=none;fillColor=none;" vertex="1" parent="1">
          <mxGeometry x="874" y="695" width="40" height="30" as="geometry" />
        </mxCell>
        <mxCell id="hDYPPicwK_5DRnvfB0r1-182" value="5V" style="text;html=1;align=center;verticalAlign=middle;resizable=0;points=[];autosize=1;strokeColor=none;fillColor=none;" vertex="1" parent="1">
          <mxGeometry x="950" y="760" width="40" height="30" as="geometry" />
        </mxCell>
        <mxCell id="hDYPPicwK_5DRnvfB0r1-183" value="24V" style="text;html=1;align=center;verticalAlign=middle;resizable=0;points=[];autosize=1;strokeColor=none;fillColor=none;" vertex="1" parent="1">
          <mxGeometry x="655" y="450" width="40" height="30" as="geometry" />
        </mxCell>
        <mxCell id="hDYPPicwK_5DRnvfB0r1-189" value="" style="endArrow=none;html=1;rounded=0;fillColor=#0050ef;strokeColor=#001DBC;strokeWidth=5;" edge="1" parent="1" target="hDYPPicwK_5DRnvfB0r1-184">
          <mxGeometry width="50" height="50" relative="1" as="geometry">
            <mxPoint x="880" y="390" as="sourcePoint" />
            <mxPoint x="940" y="390.38" as="targetPoint" />
          </mxGeometry>
        </mxCell>
        <mxCell id="hDYPPicwK_5DRnvfB0r1-184" value="" style="rounded=0;whiteSpace=wrap;html=1;fillColor=#000000;rotation=90;" vertex="1" parent="1">
          <mxGeometry x="905" y="380" width="10" height="20" as="geometry" />
        </mxCell>
        <mxCell id="hDYPPicwK_5DRnvfB0r1-190" value="" style="rounded=0;whiteSpace=wrap;html=1;fillColor=#000000;rotation=90;" vertex="1" parent="1">
          <mxGeometry x="904" y="210.88" width="10" height="20" as="geometry" />
        </mxCell>
      </root>
    </mxGraphModel>
  </diagram>
</mxfile>
